<mxfile host="Electron" modified="2024-02-22T13:25:36.102Z" agent="Mozilla/5.0 (Windows NT 10.0; Win64; x64) AppleWebKit/537.36 (KHTML, like Gecko) draw.io/21.2.8 Chrome/112.0.5615.165 Electron/24.2.0 Safari/537.36" etag="SdPrtjqmEag9jLfTYmP4" version="21.2.8" type="device">
  <diagram name="Page-1" id="778nGikABLYzh-xob7s7">
    <mxGraphModel dx="2726" dy="998" grid="1" gridSize="10" guides="1" tooltips="1" connect="1" arrows="1" fold="1" page="1" pageScale="1" pageWidth="850" pageHeight="1100" math="0" shadow="0">
      <root>
        <mxCell id="0" />
        <mxCell id="1" parent="0" />
        <mxCell id="olzzQ1QHrfak2-U6HVVo-68" value="" style="rounded=0;whiteSpace=wrap;html=1;" parent="1" vertex="1">
          <mxGeometry x="160" y="580" width="400" height="140" as="geometry" />
        </mxCell>
        <mxCell id="olzzQ1QHrfak2-U6HVVo-1" value="" style="rounded=0;whiteSpace=wrap;html=1;" parent="1" vertex="1">
          <mxGeometry x="160" y="120" width="400" height="120" as="geometry" />
        </mxCell>
        <mxCell id="olzzQ1QHrfak2-U6HVVo-2" value="" style="shape=curlyBracket;whiteSpace=wrap;html=1;rounded=1;labelPosition=left;verticalLabelPosition=middle;align=right;verticalAlign=middle;" parent="1" vertex="1">
          <mxGeometry x="110" y="120" width="20" height="120" as="geometry" />
        </mxCell>
        <mxCell id="olzzQ1QHrfak2-U6HVVo-3" value="API layer" style="text;html=1;strokeColor=none;fillColor=none;align=center;verticalAlign=middle;whiteSpace=wrap;rounded=0;" parent="1" vertex="1">
          <mxGeometry x="40" y="165" width="60" height="30" as="geometry" />
        </mxCell>
        <mxCell id="olzzQ1QHrfak2-U6HVVo-4" value="" style="rounded=0;whiteSpace=wrap;html=1;" parent="1" vertex="1">
          <mxGeometry x="180" y="120" width="360" height="40" as="geometry" />
        </mxCell>
        <mxCell id="olzzQ1QHrfak2-U6HVVo-5" value="" style="rounded=0;whiteSpace=wrap;html=1;fillColor=#f5f5f5;fontColor=#333333;strokeColor=#666666;" parent="1" vertex="1">
          <mxGeometry x="180" y="160" width="360" height="40" as="geometry" />
        </mxCell>
        <mxCell id="olzzQ1QHrfak2-U6HVVo-7" value="Repository" style="rounded=0;whiteSpace=wrap;html=1;" parent="1" vertex="1">
          <mxGeometry x="450" y="200" width="90" height="40" as="geometry" />
        </mxCell>
        <mxCell id="olzzQ1QHrfak2-U6HVVo-8" value="" style="rounded=0;whiteSpace=wrap;html=1;fillColor=#f5f5f5;fontColor=#333333;strokeColor=#666666;" parent="1" vertex="1">
          <mxGeometry x="270" y="200" width="180" height="40" as="geometry" />
        </mxCell>
        <mxCell id="olzzQ1QHrfak2-U6HVVo-9" value="" style="rounded=0;whiteSpace=wrap;html=1;" parent="1" vertex="1">
          <mxGeometry x="160" y="290" width="400" height="270" as="geometry" />
        </mxCell>
        <mxCell id="olzzQ1QHrfak2-U6HVVo-10" value="ComponentGateway&lt;font style=&quot;font-size: 9px;&quot;&gt;[DP_SPEC, COMP_SPEC, OUT, ACL]&lt;/font&gt;&lt;br&gt;&lt;font style=&quot;font-size: 9px;&quot; face=&quot;Courier New&quot;&gt;(ImpalaGateway)&lt;/font&gt;" style="rounded=0;whiteSpace=wrap;html=1;" parent="1" vertex="1">
          <mxGeometry x="270" y="290" width="270" height="40" as="geometry" />
        </mxCell>
        <mxCell id="olzzQ1QHrfak2-U6HVVo-12" value="" style="rounded=0;orthogonalLoop=1;jettySize=auto;html=1;endArrow=halfCircle;endFill=0;entryX=0.5;entryY=0.5;endSize=6;strokeWidth=1;sketch=0;" parent="1" source="olzzQ1QHrfak2-U6HVVo-8" target="olzzQ1QHrfak2-U6HVVo-13" edge="1">
          <mxGeometry relative="1" as="geometry">
            <mxPoint x="310" y="275" as="sourcePoint" />
          </mxGeometry>
        </mxCell>
        <mxCell id="olzzQ1QHrfak2-U6HVVo-50" style="edgeStyle=orthogonalEdgeStyle;rounded=0;orthogonalLoop=1;jettySize=auto;html=1;endArrow=none;endFill=0;" parent="1" source="olzzQ1QHrfak2-U6HVVo-13" target="olzzQ1QHrfak2-U6HVVo-10" edge="1">
          <mxGeometry relative="1" as="geometry">
            <Array as="points">
              <mxPoint x="360" y="280" />
              <mxPoint x="360" y="280" />
            </Array>
          </mxGeometry>
        </mxCell>
        <mxCell id="olzzQ1QHrfak2-U6HVVo-51" value="destroy" style="edgeLabel;html=1;align=center;verticalAlign=middle;resizable=0;points=[];" parent="olzzQ1QHrfak2-U6HVVo-50" vertex="1" connectable="0">
          <mxGeometry x="-0.282" y="1" relative="1" as="geometry">
            <mxPoint as="offset" />
          </mxGeometry>
        </mxCell>
        <mxCell id="olzzQ1QHrfak2-U6HVVo-13" value="" style="ellipse;whiteSpace=wrap;html=1;align=center;aspect=fixed;resizable=0;points=[];outlineConnect=0;sketch=0;" parent="1" vertex="1">
          <mxGeometry x="355" y="256" width="10" height="10" as="geometry" />
        </mxCell>
        <mxCell id="olzzQ1QHrfak2-U6HVVo-18" value="" style="rounded=0;orthogonalLoop=1;jettySize=auto;html=1;endArrow=halfCircle;endFill=0;entryX=0.5;entryY=0.5;endSize=6;strokeWidth=1;sketch=0;exitX=0.833;exitY=1.001;exitDx=0;exitDy=0;exitPerimeter=0;" parent="1" source="olzzQ1QHrfak2-U6HVVo-8" target="olzzQ1QHrfak2-U6HVVo-19" edge="1">
          <mxGeometry relative="1" as="geometry">
            <mxPoint x="445" y="275" as="sourcePoint" />
          </mxGeometry>
        </mxCell>
        <mxCell id="olzzQ1QHrfak2-U6HVVo-52" style="edgeStyle=orthogonalEdgeStyle;rounded=0;orthogonalLoop=1;jettySize=auto;html=1;endArrow=none;endFill=0;" parent="1" source="olzzQ1QHrfak2-U6HVVo-19" target="olzzQ1QHrfak2-U6HVVo-10" edge="1">
          <mxGeometry relative="1" as="geometry">
            <Array as="points">
              <mxPoint x="420" y="290" />
              <mxPoint x="420" y="290" />
            </Array>
          </mxGeometry>
        </mxCell>
        <mxCell id="olzzQ1QHrfak2-U6HVVo-53" value="updateAcl" style="edgeLabel;html=1;align=center;verticalAlign=middle;resizable=0;points=[];" parent="olzzQ1QHrfak2-U6HVVo-52" vertex="1" connectable="0">
          <mxGeometry x="-0.2436" y="-1" relative="1" as="geometry">
            <mxPoint as="offset" />
          </mxGeometry>
        </mxCell>
        <mxCell id="olzzQ1QHrfak2-U6HVVo-19" value="" style="ellipse;whiteSpace=wrap;html=1;align=center;aspect=fixed;resizable=0;points=[];outlineConnect=0;sketch=0;" parent="1" vertex="1">
          <mxGeometry x="415" y="256" width="10" height="10" as="geometry" />
        </mxCell>
        <mxCell id="olzzQ1QHrfak2-U6HVVo-24" value="" style="rounded=0;orthogonalLoop=1;jettySize=auto;html=1;endArrow=halfCircle;endFill=0;entryX=0.5;entryY=0.5;endSize=6;strokeWidth=1;sketch=0;exitX=0.16;exitY=0.992;exitDx=0;exitDy=0;exitPerimeter=0;" parent="1" source="olzzQ1QHrfak2-U6HVVo-8" target="olzzQ1QHrfak2-U6HVVo-25" edge="1">
          <mxGeometry relative="1" as="geometry">
            <mxPoint x="310" y="285" as="sourcePoint" />
          </mxGeometry>
        </mxCell>
        <mxCell id="olzzQ1QHrfak2-U6HVVo-48" style="edgeStyle=orthogonalEdgeStyle;rounded=0;orthogonalLoop=1;jettySize=auto;html=1;endArrow=none;endFill=0;" parent="1" source="olzzQ1QHrfak2-U6HVVo-25" target="olzzQ1QHrfak2-U6HVVo-10" edge="1">
          <mxGeometry relative="1" as="geometry">
            <Array as="points">
              <mxPoint x="299" y="290" />
              <mxPoint x="299" y="290" />
            </Array>
          </mxGeometry>
        </mxCell>
        <mxCell id="olzzQ1QHrfak2-U6HVVo-49" value="create" style="edgeLabel;html=1;align=center;verticalAlign=middle;resizable=0;points=[];" parent="olzzQ1QHrfak2-U6HVVo-48" vertex="1" connectable="0">
          <mxGeometry x="-0.3366" relative="1" as="geometry">
            <mxPoint as="offset" />
          </mxGeometry>
        </mxCell>
        <mxCell id="olzzQ1QHrfak2-U6HVVo-25" value="" style="ellipse;whiteSpace=wrap;html=1;align=center;aspect=fixed;resizable=0;points=[];outlineConnect=0;sketch=0;" parent="1" vertex="1">
          <mxGeometry x="294" y="256" width="10" height="10" as="geometry" />
        </mxCell>
        <mxCell id="olzzQ1QHrfak2-U6HVVo-26" value="" style="rounded=0;orthogonalLoop=1;jettySize=auto;html=1;endArrow=none;endFill=0;sketch=0;sourcePerimeterSpacing=0;targetPerimeterSpacing=0;exitX=0.25;exitY=0;exitDx=0;exitDy=0;" parent="1" source="olzzQ1QHrfak2-U6HVVo-4" target="olzzQ1QHrfak2-U6HVVo-28" edge="1">
          <mxGeometry relative="1" as="geometry">
            <mxPoint x="254" y="65" as="sourcePoint" />
            <mxPoint x="350" y="80" as="targetPoint" />
          </mxGeometry>
        </mxCell>
        <mxCell id="olzzQ1QHrfak2-U6HVVo-28" value="/validate" style="ellipse;whiteSpace=wrap;html=1;align=center;aspect=fixed;resizable=0;points=[];outlineConnect=0;sketch=0;labelPosition=center;verticalLabelPosition=top;verticalAlign=bottom;" parent="1" vertex="1">
          <mxGeometry x="265" y="80" width="10" height="10" as="geometry" />
        </mxCell>
        <mxCell id="olzzQ1QHrfak2-U6HVVo-34" style="edgeStyle=orthogonalEdgeStyle;rounded=0;orthogonalLoop=1;jettySize=auto;html=1;endArrow=none;endFill=0;" parent="1" source="olzzQ1QHrfak2-U6HVVo-31" target="olzzQ1QHrfak2-U6HVVo-4" edge="1">
          <mxGeometry relative="1" as="geometry">
            <Array as="points">
              <mxPoint x="335" y="120" />
              <mxPoint x="335" y="120" />
            </Array>
          </mxGeometry>
        </mxCell>
        <mxCell id="olzzQ1QHrfak2-U6HVVo-31" value="/provision" style="ellipse;whiteSpace=wrap;html=1;align=center;aspect=fixed;resizable=0;points=[];outlineConnect=0;sketch=0;labelPosition=center;verticalLabelPosition=top;verticalAlign=bottom;direction=south;" parent="1" vertex="1">
          <mxGeometry x="330" y="80" width="10" height="10" as="geometry" />
        </mxCell>
        <mxCell id="olzzQ1QHrfak2-U6HVVo-35" style="edgeStyle=orthogonalEdgeStyle;rounded=0;orthogonalLoop=1;jettySize=auto;html=1;endArrow=none;endFill=0;" parent="1" source="olzzQ1QHrfak2-U6HVVo-32" target="olzzQ1QHrfak2-U6HVVo-4" edge="1">
          <mxGeometry relative="1" as="geometry">
            <Array as="points">
              <mxPoint x="405" y="110" />
              <mxPoint x="405" y="110" />
            </Array>
          </mxGeometry>
        </mxCell>
        <mxCell id="olzzQ1QHrfak2-U6HVVo-32" value="/unprovision" style="ellipse;whiteSpace=wrap;html=1;align=center;aspect=fixed;resizable=0;points=[];outlineConnect=0;sketch=0;labelPosition=center;verticalLabelPosition=top;verticalAlign=bottom;" parent="1" vertex="1">
          <mxGeometry x="400" y="80" width="10" height="10" as="geometry" />
        </mxCell>
        <mxCell id="olzzQ1QHrfak2-U6HVVo-36" style="edgeStyle=orthogonalEdgeStyle;rounded=0;orthogonalLoop=1;jettySize=auto;html=1;endArrow=none;endFill=0;" parent="1" source="olzzQ1QHrfak2-U6HVVo-33" target="olzzQ1QHrfak2-U6HVVo-4" edge="1">
          <mxGeometry relative="1" as="geometry">
            <Array as="points">
              <mxPoint x="475" y="110" />
              <mxPoint x="475" y="110" />
            </Array>
          </mxGeometry>
        </mxCell>
        <mxCell id="olzzQ1QHrfak2-U6HVVo-33" value="/updateAcl" style="ellipse;whiteSpace=wrap;html=1;align=center;aspect=fixed;resizable=0;points=[];outlineConnect=0;sketch=0;labelPosition=center;verticalLabelPosition=top;verticalAlign=bottom;" parent="1" vertex="1">
          <mxGeometry x="470" y="80" width="10" height="10" as="geometry" />
        </mxCell>
        <mxCell id="olzzQ1QHrfak2-U6HVVo-37" value="" style="endArrow=none;html=1;rounded=1;entryX=0.25;entryY=0;entryDx=0;entryDy=0;dashed=1;strokeWidth=0.5;exitX=0.138;exitY=1;exitDx=0;exitDy=0;exitPerimeter=0;" parent="1" source="olzzQ1QHrfak2-U6HVVo-1" target="olzzQ1QHrfak2-U6HVVo-4" edge="1">
          <mxGeometry width="50" height="50" relative="1" as="geometry">
            <mxPoint x="180" y="100" as="sourcePoint" />
            <mxPoint x="230" y="50" as="targetPoint" />
            <Array as="points">
              <mxPoint x="215" y="180" />
              <mxPoint x="270" y="180" />
            </Array>
          </mxGeometry>
        </mxCell>
        <mxCell id="olzzQ1QHrfak2-U6HVVo-38" value="" style="endArrow=none;html=1;rounded=1;exitX=0.159;exitY=1.001;exitDx=0;exitDy=0;dashed=1;entryX=0.431;entryY=0.001;entryDx=0;entryDy=0;entryPerimeter=0;exitPerimeter=0;strokeWidth=0.5;" parent="1" source="olzzQ1QHrfak2-U6HVVo-8" target="olzzQ1QHrfak2-U6HVVo-4" edge="1">
          <mxGeometry width="50" height="50" relative="1" as="geometry">
            <mxPoint x="298.26" y="240.2" as="sourcePoint" />
            <mxPoint x="334.08000000000004" y="120.19999999999996" as="targetPoint" />
            <Array as="points">
              <mxPoint x="299" y="170" />
              <mxPoint x="335" y="170" />
            </Array>
          </mxGeometry>
        </mxCell>
        <mxCell id="olzzQ1QHrfak2-U6HVVo-44" value="" style="endArrow=none;html=1;rounded=1;exitX=0.5;exitY=1;exitDx=0;exitDy=0;dashed=1;entryX=0.625;entryY=0.007;entryDx=0;entryDy=0;entryPerimeter=0;strokeWidth=0.5;" parent="1" source="olzzQ1QHrfak2-U6HVVo-8" target="olzzQ1QHrfak2-U6HVVo-4" edge="1">
          <mxGeometry width="50" height="50" relative="1" as="geometry">
            <mxPoint x="309" y="250" as="sourcePoint" />
            <mxPoint x="345" y="130" as="targetPoint" />
            <Array as="points">
              <mxPoint x="360" y="170" />
              <mxPoint x="405" y="170" />
            </Array>
          </mxGeometry>
        </mxCell>
        <mxCell id="olzzQ1QHrfak2-U6HVVo-45" value="" style="endArrow=none;html=1;rounded=1;exitX=0.832;exitY=1;exitDx=0;exitDy=0;dashed=1;entryX=0.819;entryY=-0.005;entryDx=0;entryDy=0;entryPerimeter=0;exitPerimeter=0;strokeWidth=0.5;" parent="1" source="olzzQ1QHrfak2-U6HVVo-8" target="olzzQ1QHrfak2-U6HVVo-4" edge="1">
          <mxGeometry width="50" height="50" relative="1" as="geometry">
            <mxPoint x="370" y="250" as="sourcePoint" />
            <mxPoint x="415" y="130" as="targetPoint" />
            <Array as="points">
              <mxPoint x="420" y="170" />
              <mxPoint x="475" y="170" />
            </Array>
          </mxGeometry>
        </mxCell>
        <mxCell id="olzzQ1QHrfak2-U6HVVo-43" value="ProvisionerController" style="text;html=1;strokeColor=none;fillColor=none;align=center;verticalAlign=middle;whiteSpace=wrap;rounded=0;labelBackgroundColor=#f5f5f5;" parent="1" vertex="1">
          <mxGeometry x="330" y="165" width="60" height="30" as="geometry" />
        </mxCell>
        <mxCell id="olzzQ1QHrfak2-U6HVVo-46" value="Provisioner" style="text;strokeColor=none;fillColor=none;align=center;verticalAlign=middle;whiteSpace=wrap;rounded=0;labelBackgroundColor=#f5f5f5;" parent="1" vertex="1">
          <mxGeometry x="330" y="205" width="60" height="30" as="geometry" />
        </mxCell>
        <mxCell id="olzzQ1QHrfak2-U6HVVo-47" value="" style="shape=curlyBracket;whiteSpace=wrap;html=1;rounded=1;labelPosition=left;verticalLabelPosition=middle;align=right;verticalAlign=middle;" parent="1" vertex="1">
          <mxGeometry x="110" y="290" width="20" height="270" as="geometry" />
        </mxCell>
        <mxCell id="olzzQ1QHrfak2-U6HVVo-6" value="Validator&lt;br&gt;&lt;font style=&quot;font-size: 7px;&quot; face=&quot;Courier New&quot;&gt;(ImpalaCdwValidator)&lt;/font&gt;" style="rounded=0;whiteSpace=wrap;html=1;" parent="1" vertex="1">
          <mxGeometry x="170" y="290" width="90" height="40" as="geometry" />
        </mxCell>
        <mxCell id="olzzQ1QHrfak2-U6HVVo-55" value="validate" style="rounded=0;orthogonalLoop=1;jettySize=auto;html=1;endArrow=none;endFill=0;sketch=0;sourcePerimeterSpacing=0;targetPerimeterSpacing=0;" parent="1" source="olzzQ1QHrfak2-U6HVVo-6" target="olzzQ1QHrfak2-U6HVVo-57" edge="1">
          <mxGeometry relative="1" as="geometry">
            <mxPoint x="180" y="261" as="sourcePoint" />
          </mxGeometry>
        </mxCell>
        <mxCell id="olzzQ1QHrfak2-U6HVVo-56" value="" style="rounded=0;orthogonalLoop=1;jettySize=auto;html=1;endArrow=halfCircle;endFill=0;entryX=0.5;entryY=0.5;endSize=6;strokeWidth=1;sketch=0;exitX=0.138;exitY=1;exitDx=0;exitDy=0;exitPerimeter=0;" parent="1" source="olzzQ1QHrfak2-U6HVVo-1" target="olzzQ1QHrfak2-U6HVVo-57" edge="1">
          <mxGeometry relative="1" as="geometry">
            <mxPoint x="220" y="261" as="sourcePoint" />
          </mxGeometry>
        </mxCell>
        <mxCell id="olzzQ1QHrfak2-U6HVVo-57" value="" style="ellipse;whiteSpace=wrap;html=1;align=center;aspect=fixed;resizable=0;points=[];outlineConnect=0;sketch=0;" parent="1" vertex="1">
          <mxGeometry x="210" y="256" width="10" height="10" as="geometry" />
        </mxCell>
        <mxCell id="olzzQ1QHrfak2-U6HVVo-58" value="Business layer" style="text;html=1;align=center;verticalAlign=middle;resizable=0;points=[];autosize=1;strokeColor=none;fillColor=none;" parent="1" vertex="1">
          <mxGeometry x="10" y="410" width="100" height="30" as="geometry" />
        </mxCell>
        <mxCell id="olzzQ1QHrfak2-U6HVVo-75" style="edgeStyle=orthogonalEdgeStyle;rounded=1;orthogonalLoop=1;jettySize=auto;html=1;" parent="1" source="olzzQ1QHrfak2-U6HVVo-59" target="olzzQ1QHrfak2-U6HVVo-65" edge="1">
          <mxGeometry relative="1" as="geometry">
            <mxPoint x="340" y="378" as="sourcePoint" />
            <mxPoint x="310" y="398" as="targetPoint" />
            <Array as="points">
              <mxPoint x="340" y="395" />
              <mxPoint x="490" y="395" />
            </Array>
          </mxGeometry>
        </mxCell>
        <mxCell id="olzzQ1QHrfak2-U6HVVo-76" style="edgeStyle=orthogonalEdgeStyle;rounded=1;orthogonalLoop=1;jettySize=auto;html=1;" parent="1" source="olzzQ1QHrfak2-U6HVVo-59" target="olzzQ1QHrfak2-U6HVVo-66" edge="1">
          <mxGeometry relative="1" as="geometry">
            <Array as="points">
              <mxPoint x="340" y="395" />
              <mxPoint x="310" y="395" />
            </Array>
          </mxGeometry>
        </mxCell>
        <mxCell id="olzzQ1QHrfak2-U6HVVo-59" value="ImpalaTable&lt;br&gt;OPGateway" style="rounded=0;whiteSpace=wrap;html=1;" parent="1" vertex="1">
          <mxGeometry x="270" y="330" width="110" height="50" as="geometry" />
        </mxCell>
        <mxCell id="olzzQ1QHrfak2-U6HVVo-77" style="edgeStyle=orthogonalEdgeStyle;rounded=1;orthogonalLoop=1;jettySize=auto;html=1;" parent="1" source="olzzQ1QHrfak2-U6HVVo-60" target="olzzQ1QHrfak2-U6HVVo-65" edge="1">
          <mxGeometry relative="1" as="geometry">
            <Array as="points">
              <mxPoint x="427" y="410" />
              <mxPoint x="460" y="410" />
            </Array>
          </mxGeometry>
        </mxCell>
        <mxCell id="olzzQ1QHrfak2-U6HVVo-78" style="edgeStyle=orthogonalEdgeStyle;rounded=1;orthogonalLoop=1;jettySize=auto;html=1;" parent="1" source="olzzQ1QHrfak2-U6HVVo-60" target="olzzQ1QHrfak2-U6HVVo-66" edge="1">
          <mxGeometry relative="1" as="geometry">
            <Array as="points">
              <mxPoint x="427" y="410" />
              <mxPoint x="330" y="410" />
            </Array>
          </mxGeometry>
        </mxCell>
        <mxCell id="olzzQ1QHrfak2-U6HVVo-60" value="ImpalaTable&lt;br&gt;SAGateway" style="rounded=0;whiteSpace=wrap;html=1;" parent="1" vertex="1">
          <mxGeometry x="375" y="330" width="105" height="50" as="geometry" />
        </mxCell>
        <mxCell id="olzzQ1QHrfak2-U6HVVo-64" value="" style="group" parent="1" vertex="1" connectable="0">
          <mxGeometry x="490" y="345" width="40" height="20" as="geometry" />
        </mxCell>
        <mxCell id="olzzQ1QHrfak2-U6HVVo-61" value="" style="shape=waypoint;sketch=0;size=6;pointerEvents=1;points=[];fillColor=none;resizable=0;rotatable=0;perimeter=centerPerimeter;snapToPoint=1;" parent="olzzQ1QHrfak2-U6HVVo-64" vertex="1">
          <mxGeometry width="20" height="20" as="geometry" />
        </mxCell>
        <mxCell id="olzzQ1QHrfak2-U6HVVo-62" value="" style="shape=waypoint;sketch=0;size=6;pointerEvents=1;points=[];fillColor=none;resizable=0;rotatable=0;perimeter=centerPerimeter;snapToPoint=1;" parent="olzzQ1QHrfak2-U6HVVo-64" vertex="1">
          <mxGeometry x="10" width="20" height="20" as="geometry" />
        </mxCell>
        <mxCell id="olzzQ1QHrfak2-U6HVVo-63" value="" style="shape=waypoint;sketch=0;size=6;pointerEvents=1;points=[];fillColor=none;resizable=0;rotatable=0;perimeter=centerPerimeter;snapToPoint=1;" parent="olzzQ1QHrfak2-U6HVVo-64" vertex="1">
          <mxGeometry x="20" width="20" height="20" as="geometry" />
        </mxCell>
        <mxCell id="olzzQ1QHrfak2-U6HVVo-74" style="edgeStyle=orthogonalEdgeStyle;rounded=0;orthogonalLoop=1;jettySize=auto;html=1;" parent="1" source="olzzQ1QHrfak2-U6HVVo-65" target="olzzQ1QHrfak2-U6HVVo-67" edge="1">
          <mxGeometry relative="1" as="geometry" />
        </mxCell>
        <mxCell id="olzzQ1QHrfak2-U6HVVo-65" value="ImpalaAccessControl&lt;br&gt;Gateway" style="rounded=0;whiteSpace=wrap;html=1;" parent="1" vertex="1">
          <mxGeometry x="410" y="440" width="140" height="50" as="geometry" />
        </mxCell>
        <mxCell id="olzzQ1QHrfak2-U6HVVo-66" value="ExternalTable&lt;br&gt;Gateway" style="rounded=0;whiteSpace=wrap;html=1;" parent="1" vertex="1">
          <mxGeometry x="260" y="440" width="140" height="50" as="geometry" />
        </mxCell>
        <mxCell id="olzzQ1QHrfak2-U6HVVo-67" value="Ranger SZ/Role/Policy&lt;br&gt;Gateway" style="rounded=0;whiteSpace=wrap;html=1;" parent="1" vertex="1">
          <mxGeometry x="410" y="500" width="140" height="50" as="geometry" />
        </mxCell>
        <mxCell id="olzzQ1QHrfak2-U6HVVo-90" style="edgeStyle=orthogonalEdgeStyle;rounded=0;orthogonalLoop=1;jettySize=auto;html=1;" parent="1" source="olzzQ1QHrfak2-U6HVVo-69" target="olzzQ1QHrfak2-U6HVVo-89" edge="1">
          <mxGeometry relative="1" as="geometry" />
        </mxCell>
        <mxCell id="olzzQ1QHrfak2-U6HVVo-69" value="RangerClient" style="rounded=0;whiteSpace=wrap;html=1;fillColor=#f5f5f5;strokeColor=#666666;fontColor=#333333;" parent="1" vertex="1">
          <mxGeometry x="465" y="600" width="90" height="50" as="geometry" />
        </mxCell>
        <mxCell id="olzzQ1QHrfak2-U6HVVo-70" value="CDPPublicHostProvider" style="rounded=0;whiteSpace=wrap;html=1;" parent="1" vertex="1">
          <mxGeometry x="170" y="600" width="140" height="50" as="geometry" />
        </mxCell>
        <mxCell id="olzzQ1QHrfak2-U6HVVo-71" value="SqlGateway" style="rounded=0;whiteSpace=wrap;html=1;" parent="1" vertex="1">
          <mxGeometry x="315" y="600" width="140" height="50" as="geometry" />
        </mxCell>
        <mxCell id="olzzQ1QHrfak2-U6HVVo-72" value="Cloudera Impala JDBC Driver" style="rounded=0;whiteSpace=wrap;html=1;fillColor=#ffe6cc;strokeColor=#d79b00;" parent="1" vertex="1">
          <mxGeometry x="315" y="664" width="140" height="50" as="geometry" />
        </mxCell>
        <mxCell id="olzzQ1QHrfak2-U6HVVo-73" style="edgeStyle=orthogonalEdgeStyle;rounded=1;orthogonalLoop=1;jettySize=auto;html=1;" parent="1" source="olzzQ1QHrfak2-U6HVVo-67" target="olzzQ1QHrfak2-U6HVVo-69" edge="1">
          <mxGeometry relative="1" as="geometry">
            <Array as="points">
              <mxPoint x="480" y="570" />
              <mxPoint x="510" y="570" />
            </Array>
          </mxGeometry>
        </mxCell>
        <mxCell id="olzzQ1QHrfak2-U6HVVo-79" style="edgeStyle=orthogonalEdgeStyle;rounded=1;orthogonalLoop=1;jettySize=auto;html=1;" parent="1" source="olzzQ1QHrfak2-U6HVVo-66" target="olzzQ1QHrfak2-U6HVVo-71" edge="1">
          <mxGeometry relative="1" as="geometry">
            <Array as="points">
              <mxPoint x="330" y="570" />
              <mxPoint x="385" y="570" />
            </Array>
          </mxGeometry>
        </mxCell>
        <mxCell id="olzzQ1QHrfak2-U6HVVo-81" value="" style="edgeStyle=elbowEdgeStyle;elbow=vertical;endArrow=classic;html=1;curved=0;rounded=0;endSize=8;startSize=8;" parent="1" source="olzzQ1QHrfak2-U6HVVo-71" target="olzzQ1QHrfak2-U6HVVo-72" edge="1">
          <mxGeometry width="50" height="50" relative="1" as="geometry">
            <mxPoint x="490" y="670" as="sourcePoint" />
            <mxPoint x="540" y="620" as="targetPoint" />
          </mxGeometry>
        </mxCell>
        <mxCell id="olzzQ1QHrfak2-U6HVVo-82" value="Cloudera SDK" style="rounded=0;whiteSpace=wrap;html=1;fillColor=#ffe6cc;strokeColor=#d79b00;" parent="1" vertex="1">
          <mxGeometry x="170" y="664" width="140" height="50" as="geometry" />
        </mxCell>
        <mxCell id="olzzQ1QHrfak2-U6HVVo-85" value="" style="edgeStyle=elbowEdgeStyle;elbow=vertical;endArrow=classic;html=1;curved=0;rounded=0;endSize=8;startSize=8;" parent="1" source="olzzQ1QHrfak2-U6HVVo-70" target="olzzQ1QHrfak2-U6HVVo-82" edge="1">
          <mxGeometry width="50" height="50" relative="1" as="geometry">
            <mxPoint x="230" y="660" as="sourcePoint" />
            <mxPoint x="280" y="610" as="targetPoint" />
            <Array as="points">
              <mxPoint x="230" y="660" />
            </Array>
          </mxGeometry>
        </mxCell>
        <mxCell id="olzzQ1QHrfak2-U6HVVo-86" value="" style="edgeStyle=elbowEdgeStyle;elbow=vertical;endArrow=classic;html=1;rounded=1;endSize=8;startSize=8;" parent="1" source="olzzQ1QHrfak2-U6HVVo-59" target="olzzQ1QHrfak2-U6HVVo-70" edge="1">
          <mxGeometry width="50" height="50" relative="1" as="geometry">
            <mxPoint x="230" y="570" as="sourcePoint" />
            <mxPoint x="280" y="520" as="targetPoint" />
            <Array as="points">
              <mxPoint x="230" y="355" />
              <mxPoint x="-100" y="500" />
              <mxPoint x="230" y="355" />
              <mxPoint x="250" y="360" />
            </Array>
          </mxGeometry>
        </mxCell>
        <mxCell id="olzzQ1QHrfak2-U6HVVo-87" value="" style="shape=curlyBracket;whiteSpace=wrap;html=1;rounded=1;labelPosition=left;verticalLabelPosition=middle;align=right;verticalAlign=middle;" parent="1" vertex="1">
          <mxGeometry x="110" y="580" width="20" height="140" as="geometry" />
        </mxCell>
        <mxCell id="olzzQ1QHrfak2-U6HVVo-88" value="Infra layer" style="text;html=1;align=center;verticalAlign=middle;resizable=0;points=[];autosize=1;strokeColor=none;fillColor=none;" parent="1" vertex="1">
          <mxGeometry x="30" y="634" width="80" height="30" as="geometry" />
        </mxCell>
        <mxCell id="olzzQ1QHrfak2-U6HVVo-89" value="ranger-intg&lt;br&gt;RangerClient" style="rounded=0;whiteSpace=wrap;html=1;fillColor=#dae8fc;strokeColor=#6c8ebf;" parent="1" vertex="1">
          <mxGeometry x="465" y="664" width="90" height="50" as="geometry" />
        </mxCell>
        <mxCell id="olzzQ1QHrfak2-U6HVVo-93" value="Parsing and decoding of descriptor, excepting Specific field. Greyed out components means logic is implemented in scala-mesh commons library" style="shape=callout;whiteSpace=wrap;html=1;perimeter=calloutPerimeter;direction=south;position2=0.78;" parent="1" vertex="1">
          <mxGeometry x="550" y="80" width="220" height="90" as="geometry" />
        </mxCell>
        <mxCell id="olzzQ1QHrfak2-U6HVVo-95" value="Common architecture for all types of component, leveraging class hierarchy and minimum set of required fields as much as possible" style="shape=callout;whiteSpace=wrap;html=1;perimeter=calloutPerimeter;direction=south;" parent="1" vertex="1">
          <mxGeometry x="570" y="470" width="220" height="90" as="geometry" />
        </mxCell>
        <mxCell id="olzzQ1QHrfak2-U6HVVo-97" value="CDPPublic is only used on Gateway provisioning components on CDP Public" style="shape=callout;whiteSpace=wrap;html=1;perimeter=calloutPerimeter;direction=south;" parent="1" vertex="1">
          <mxGeometry x="570" y="610" width="200" height="90" as="geometry" />
        </mxCell>
        <mxCell id="olzzQ1QHrfak2-U6HVVo-98" value="PrincipalsMapper&lt;br&gt;(SPI)" style="rounded=0;whiteSpace=wrap;html=1;" parent="1" vertex="1">
          <mxGeometry x="600" y="211" width="120" height="60" as="geometry" />
        </mxCell>
        <mxCell id="olzzQ1QHrfak2-U6HVVo-99" value="" style="edgeStyle=elbowEdgeStyle;elbow=vertical;endArrow=classic;html=1;rounded=1;endSize=8;startSize=8;" parent="1" source="olzzQ1QHrfak2-U6HVVo-8" target="olzzQ1QHrfak2-U6HVVo-98" edge="1">
          <mxGeometry width="50" height="50" relative="1" as="geometry">
            <mxPoint x="500" y="290" as="sourcePoint" />
            <mxPoint x="550" y="240" as="targetPoint" />
            <Array as="points">
              <mxPoint x="440" y="250" />
              <mxPoint x="490" y="270" />
              <mxPoint x="520" y="250" />
            </Array>
          </mxGeometry>
        </mxCell>
        <mxCell id="olzzQ1QHrfak2-U6HVVo-101" value="" style="edgeStyle=elbowEdgeStyle;elbow=horizontal;endArrow=classic;html=1;rounded=1;endSize=8;startSize=8;" parent="1" source="olzzQ1QHrfak2-U6HVVo-65" target="olzzQ1QHrfak2-U6HVVo-98" edge="1">
          <mxGeometry width="50" height="50" relative="1" as="geometry">
            <mxPoint x="600" y="330" as="sourcePoint" />
            <mxPoint x="650" y="280" as="targetPoint" />
            <Array as="points">
              <mxPoint x="580" y="250" />
              <mxPoint x="570" y="280" />
            </Array>
          </mxGeometry>
        </mxCell>
        <mxCell id="olzzQ1QHrfak2-U6HVVo-94" value="Gateways need to decode Specific field. Private and Public clouds have different gateways" style="shape=callout;whiteSpace=wrap;html=1;perimeter=calloutPerimeter;direction=south;size=50;position=0.56;" parent="1" vertex="1">
          <mxGeometry x="550" y="310" width="240" height="90" as="geometry" />
        </mxCell>
        <mxCell id="olzzQ1QHrfak2-U6HVVo-102" value="FreeIPA (CDPPublic)" style="rounded=0;whiteSpace=wrap;html=1;" parent="1" vertex="1">
          <mxGeometry x="763" y="190" width="120" height="30" as="geometry" />
        </mxCell>
        <mxCell id="olzzQ1QHrfak2-U6HVVo-103" value="Identity (I -&amp;gt; I)" style="rounded=0;whiteSpace=wrap;html=1;" parent="1" vertex="1">
          <mxGeometry x="763" y="226" width="120" height="30" as="geometry" />
        </mxCell>
        <mxCell id="olzzQ1QHrfak2-U6HVVo-104" value="LDAP" style="rounded=0;whiteSpace=wrap;html=1;" parent="1" vertex="1">
          <mxGeometry x="763" y="260" width="120" height="30" as="geometry" />
        </mxCell>
        <mxCell id="olzzQ1QHrfak2-U6HVVo-105" value="" style="endArrow=block;endSize=12;endFill=0;html=1;rounded=1;entryX=1;entryY=0.5;entryDx=0;entryDy=0;" parent="1" source="olzzQ1QHrfak2-U6HVVo-102" target="olzzQ1QHrfak2-U6HVVo-98" edge="1">
          <mxGeometry width="160" relative="1" as="geometry">
            <mxPoint x="790" y="320" as="sourcePoint" />
            <mxPoint x="950" y="320" as="targetPoint" />
            <Array as="points">
              <mxPoint x="750" y="205" />
              <mxPoint x="750" y="240" />
            </Array>
          </mxGeometry>
        </mxCell>
        <mxCell id="olzzQ1QHrfak2-U6HVVo-106" value="" style="endArrow=block;endSize=12;endFill=0;html=1;rounded=1;entryX=1;entryY=0.5;entryDx=0;entryDy=0;" parent="1" source="olzzQ1QHrfak2-U6HVVo-103" target="olzzQ1QHrfak2-U6HVVo-98" edge="1">
          <mxGeometry width="160" relative="1" as="geometry">
            <mxPoint x="780" y="215" as="sourcePoint" />
            <mxPoint x="730" y="260" as="targetPoint" />
            <Array as="points">
              <mxPoint x="750" y="240" />
            </Array>
          </mxGeometry>
        </mxCell>
        <mxCell id="olzzQ1QHrfak2-U6HVVo-107" value="" style="endArrow=block;endSize=12;endFill=0;html=1;rounded=1;entryX=1;entryY=0.5;entryDx=0;entryDy=0;" parent="1" source="olzzQ1QHrfak2-U6HVVo-104" target="olzzQ1QHrfak2-U6HVVo-98" edge="1">
          <mxGeometry width="160" relative="1" as="geometry">
            <mxPoint x="780" y="250" as="sourcePoint" />
            <mxPoint x="730" y="260" as="targetPoint" />
            <Array as="points">
              <mxPoint x="750" y="275" />
              <mxPoint x="750" y="241" />
            </Array>
          </mxGeometry>
        </mxCell>
        <mxCell id="olzzQ1QHrfak2-U6HVVo-108" value="Map witboost principals (user:XXX, group:YYY) to target environment principals" style="shape=callout;whiteSpace=wrap;html=1;perimeter=calloutPerimeter;direction=east;size=30;position=0.15;position2=0.15;base=20;" parent="1" vertex="1">
          <mxGeometry x="790" y="80" width="200" height="100" as="geometry" />
        </mxCell>
        <mxCell id="olzzQ1QHrfak2-U6HVVo-127" style="edgeStyle=orthogonalEdgeStyle;rounded=0;orthogonalLoop=1;jettySize=auto;html=1;" parent="1" source="olzzQ1QHrfak2-U6HVVo-109" target="olzzQ1QHrfak2-U6HVVo-110" edge="1">
          <mxGeometry relative="1" as="geometry" />
        </mxCell>
        <mxCell id="olzzQ1QHrfak2-U6HVVo-109" value="ProvisionCommand[DP_SPEC, COMP_SPEC]" style="html=1;whiteSpace=wrap;" parent="1" vertex="1">
          <mxGeometry x="-590" y="140" width="320" height="50" as="geometry" />
        </mxCell>
        <mxCell id="olzzQ1QHrfak2-U6HVVo-128" style="edgeStyle=orthogonalEdgeStyle;rounded=1;orthogonalLoop=1;jettySize=auto;html=1;" parent="1" source="olzzQ1QHrfak2-U6HVVo-110" target="olzzQ1QHrfak2-U6HVVo-115" edge="1">
          <mxGeometry relative="1" as="geometry">
            <Array as="points">
              <mxPoint x="-430" y="275" />
              <mxPoint x="-515" y="275" />
            </Array>
          </mxGeometry>
        </mxCell>
        <mxCell id="olzzQ1QHrfak2-U6HVVo-129" style="edgeStyle=orthogonalEdgeStyle;rounded=1;orthogonalLoop=1;jettySize=auto;html=1;" parent="1" source="olzzQ1QHrfak2-U6HVVo-110" target="olzzQ1QHrfak2-U6HVVo-118" edge="1">
          <mxGeometry relative="1" as="geometry">
            <Array as="points">
              <mxPoint x="-430" y="275" />
              <mxPoint x="-350" y="275" />
            </Array>
          </mxGeometry>
        </mxCell>
        <mxCell id="olzzQ1QHrfak2-U6HVVo-110" value="ProvisionRequest[DP_SPEC, COMP_SPEC]" style="html=1;whiteSpace=wrap;" parent="1" vertex="1">
          <mxGeometry x="-590" y="211" width="320" height="50" as="geometry" />
        </mxCell>
        <mxCell id="olzzQ1QHrfak2-U6HVVo-115" value="&lt;p style=&quot;margin: 4px 0px 0px; text-align: center;&quot;&gt;&lt;b style=&quot;&quot;&gt;DataProduct[DP_SPEC]&lt;/b&gt;&lt;/p&gt;&lt;hr&gt;&lt;p style=&quot;margin:0px;margin-left:8px;&quot;&gt;id&lt;/p&gt;&lt;p style=&quot;margin:0px;margin-left:8px;&quot;&gt;dataProductOwner&lt;/p&gt;&lt;p style=&quot;margin:0px;margin-left:8px;&quot;&gt;devGroup&lt;/p&gt;" style="verticalAlign=top;align=left;overflow=fill;fontSize=12;fontFamily=Helvetica;html=1;whiteSpace=wrap;" parent="1" vertex="1">
          <mxGeometry x="-590" y="295" width="150" height="90" as="geometry" />
        </mxCell>
        <mxCell id="olzzQ1QHrfak2-U6HVVo-117" value="&lt;p style=&quot;margin: 4px 0px 0px; text-align: center;&quot;&gt;&lt;b style=&quot;&quot;&gt;Workload[COMP_SPEC]&lt;/b&gt;&lt;/p&gt;&lt;hr&gt;&lt;p style=&quot;border-color: var(--border-color); margin: 0px 0px 0px 8px;&quot;&gt;id, name, description&lt;/p&gt;&lt;p style=&quot;border-color: var(--border-color); margin: 0px 0px 0px 8px;&quot;&gt;version&lt;/p&gt;&lt;p style=&quot;border-color: var(--border-color); margin: 0px 0px 0px 8px;&quot;&gt;specific: COMP_SPEC&lt;/p&gt;" style="verticalAlign=top;align=left;overflow=fill;fontSize=12;fontFamily=Helvetica;html=1;whiteSpace=wrap;" parent="1" vertex="1">
          <mxGeometry x="-480" y="435" width="160" height="90" as="geometry" />
        </mxCell>
        <mxCell id="olzzQ1QHrfak2-U6HVVo-118" value="Component[COMP_SPEC]" style="html=1;whiteSpace=wrap;" parent="1" vertex="1">
          <mxGeometry x="-430" y="295" width="160" height="50" as="geometry" />
        </mxCell>
        <mxCell id="olzzQ1QHrfak2-U6HVVo-119" value="&lt;p style=&quot;margin: 4px 0px 0px; text-align: center;&quot;&gt;&lt;b style=&quot;&quot;&gt;StorageArea[COMP_SPEC]&lt;/b&gt;&lt;/p&gt;&lt;hr&gt;&lt;p style=&quot;margin:0px;margin-left:8px;&quot;&gt;id, name, description&lt;/p&gt;&lt;p style=&quot;margin:0px;margin-left:8px;&quot;&gt;owners&lt;/p&gt;&lt;p style=&quot;margin:0px;margin-left:8px;&quot;&gt;specific: COMP_SPEC&lt;/p&gt;" style="verticalAlign=top;align=left;overflow=fill;fontSize=12;fontFamily=Helvetica;html=1;whiteSpace=wrap;" parent="1" vertex="1">
          <mxGeometry x="-650" y="435" width="160" height="90" as="geometry" />
        </mxCell>
        <mxCell id="olzzQ1QHrfak2-U6HVVo-120" value="&lt;p style=&quot;margin: 4px 0px 0px; text-align: center;&quot;&gt;&lt;b style=&quot;&quot;&gt;OutputPort[COMP_SPEC]&lt;/b&gt;&lt;/p&gt;&lt;hr&gt;&lt;p style=&quot;border-color: var(--border-color); margin: 0px 0px 0px 8px;&quot;&gt;id, name, description&lt;/p&gt;&lt;p style=&quot;border-color: var(--border-color); margin: 0px 0px 0px 8px;&quot;&gt;dataContract&lt;/p&gt;&lt;p style=&quot;border-color: var(--border-color); margin: 0px 0px 0px 8px;&quot;&gt;specific: COMP_SPEC&lt;/p&gt;" style="verticalAlign=top;align=left;overflow=fill;fontSize=12;fontFamily=Helvetica;html=1;whiteSpace=wrap;" parent="1" vertex="1">
          <mxGeometry x="-310" y="435" width="160" height="90" as="geometry" />
        </mxCell>
        <mxCell id="olzzQ1QHrfak2-U6HVVo-123" value="" style="edgeStyle=elbowEdgeStyle;elbow=vertical;endArrow=block;html=1;rounded=1;endSize=12;startSize=8;endFill=0;" parent="1" source="olzzQ1QHrfak2-U6HVVo-119" target="olzzQ1QHrfak2-U6HVVo-118" edge="1">
          <mxGeometry width="50" height="50" relative="1" as="geometry">
            <mxPoint x="-380" y="415" as="sourcePoint" />
            <mxPoint x="-330" y="365" as="targetPoint" />
            <Array as="points">
              <mxPoint x="-460" y="405" />
            </Array>
          </mxGeometry>
        </mxCell>
        <mxCell id="olzzQ1QHrfak2-U6HVVo-125" value="" style="edgeStyle=segmentEdgeStyle;endArrow=block;html=1;rounded=1;endSize=12;startSize=8;endFill=0;" parent="1" source="olzzQ1QHrfak2-U6HVVo-117" target="olzzQ1QHrfak2-U6HVVo-118" edge="1">
          <mxGeometry width="50" height="50" relative="1" as="geometry">
            <mxPoint x="-280" y="395" as="sourcePoint" />
            <mxPoint x="-230" y="345" as="targetPoint" />
            <Array as="points">
              <mxPoint x="-410" y="405" />
              <mxPoint x="-350" y="405" />
            </Array>
          </mxGeometry>
        </mxCell>
        <mxCell id="olzzQ1QHrfak2-U6HVVo-126" value="" style="edgeStyle=segmentEdgeStyle;endArrow=block;html=1;rounded=1;endSize=12;startSize=8;endFill=0;" parent="1" source="olzzQ1QHrfak2-U6HVVo-120" target="olzzQ1QHrfak2-U6HVVo-118" edge="1">
          <mxGeometry width="50" height="50" relative="1" as="geometry">
            <mxPoint x="-400" y="445" as="sourcePoint" />
            <mxPoint x="-340" y="350" as="targetPoint" />
            <Array as="points">
              <mxPoint x="-240" y="405" />
              <mxPoint x="-350" y="405" />
            </Array>
          </mxGeometry>
        </mxCell>
        <mxCell id="olzzQ1QHrfak2-U6HVVo-131" value="&lt;p style=&quot;margin: 4px 0px 0px; text-align: center;&quot;&gt;&lt;b&gt;&lt;i&gt;ImpalaCdw&lt;/i&gt;&lt;/b&gt;&lt;/p&gt;&lt;hr&gt;&lt;p style=&quot;margin:0px;margin-left:8px;&quot;&gt;databaseName, tableName&lt;/p&gt;" style="verticalAlign=top;align=left;overflow=fill;fontSize=12;fontFamily=Helvetica;html=1;whiteSpace=wrap;" parent="1" vertex="1">
          <mxGeometry x="-500" y="580" width="150" height="90" as="geometry" />
        </mxCell>
        <mxCell id="olzzQ1QHrfak2-U6HVVo-132" value="&lt;p style=&quot;margin: 4px 0px 0px; text-align: center;&quot;&gt;&lt;b&gt;PublicImpalaTableCdw&lt;/b&gt;&lt;/p&gt;&lt;hr&gt;&lt;p style=&quot;margin:0px;margin-left:8px;&quot;&gt;cdpEnvironment&lt;/p&gt;&lt;p style=&quot;margin:0px;margin-left:8px;&quot;&gt;cdwVirtualWarehouse&lt;/p&gt;" style="verticalAlign=top;align=left;overflow=fill;fontSize=12;fontFamily=Helvetica;html=1;whiteSpace=wrap;" parent="1" vertex="1">
          <mxGeometry x="-470" y="890" width="150" height="70" as="geometry" />
        </mxCell>
        <mxCell id="olzzQ1QHrfak2-U6HVVo-133" value="&lt;p style=&quot;margin: 4px 0px 0px; text-align: center;&quot;&gt;&lt;b&gt;PrivateImpalaTableCdw&lt;/b&gt;&lt;/p&gt;&lt;hr&gt;&lt;p style=&quot;margin:0px;margin-left:8px;&quot;&gt;&lt;br&gt;&lt;/p&gt;" style="verticalAlign=top;align=left;overflow=fill;fontSize=12;fontFamily=Helvetica;html=1;whiteSpace=wrap;" parent="1" vertex="1">
          <mxGeometry x="-645" y="890" width="150" height="70" as="geometry" />
        </mxCell>
        <mxCell id="olzzQ1QHrfak2-U6HVVo-134" value="&lt;p style=&quot;margin: 4px 0px 0px; text-align: center;&quot;&gt;&lt;b&gt;ImpalaStorageAreaCdw&lt;/b&gt;&lt;/p&gt;&lt;hr&gt;&lt;p style=&quot;margin:0px;margin-left:8px;&quot;&gt;tableSchema&lt;/p&gt;" style="verticalAlign=top;align=left;overflow=fill;fontSize=12;fontFamily=Helvetica;html=1;whiteSpace=wrap;" parent="1" vertex="1">
          <mxGeometry x="-820" y="890" width="150" height="70" as="geometry" />
        </mxCell>
        <mxCell id="olzzQ1QHrfak2-U6HVVo-135" value="" style="edgeStyle=segmentEdgeStyle;endArrow=block;html=1;rounded=1;endSize=12;startSize=8;endFill=0;" parent="1" source="ZyVZIFEdDxztzDdGVrU_-1" target="olzzQ1QHrfak2-U6HVVo-131" edge="1">
          <mxGeometry width="50" height="50" relative="1" as="geometry">
            <mxPoint x="-170" y="679" as="sourcePoint" />
            <mxPoint x="-280" y="589" as="targetPoint" />
            <Array as="points">
              <mxPoint x="-430" y="700" />
              <mxPoint x="-430" y="700" />
            </Array>
          </mxGeometry>
        </mxCell>
        <mxCell id="olzzQ1QHrfak2-U6HVVo-136" value="" style="edgeStyle=segmentEdgeStyle;endArrow=block;html=1;rounded=1;endSize=12;startSize=8;endFill=0;" parent="1" source="olzzQ1QHrfak2-U6HVVo-134" target="ZyVZIFEdDxztzDdGVrU_-1" edge="1">
          <mxGeometry width="50" height="50" relative="1" as="geometry">
            <mxPoint x="-495" y="729" as="sourcePoint" />
            <mxPoint x="-385" y="679" as="targetPoint" />
            <Array as="points">
              <mxPoint x="-745" y="860" />
              <mxPoint x="-430" y="860" />
            </Array>
          </mxGeometry>
        </mxCell>
        <mxCell id="olzzQ1QHrfak2-U6HVVo-138" value="" style="endArrow=open;html=1;rounded=0;dashed=1;entryX=0.25;entryY=0;entryDx=0;entryDy=0;endFill=0;" parent="1" source="olzzQ1QHrfak2-U6HVVo-119" target="olzzQ1QHrfak2-U6HVVo-134" edge="1">
          <mxGeometry width="50" height="50" relative="1" as="geometry">
            <mxPoint x="-280" y="645" as="sourcePoint" />
            <mxPoint x="-220" y="625" as="targetPoint" />
          </mxGeometry>
        </mxCell>
        <mxCell id="olzzQ1QHrfak2-U6HVVo-41" value="ProvisionerHandler" style="text;html=1;strokeColor=none;fillColor=none;align=center;verticalAlign=middle;whiteSpace=wrap;rounded=0;labelBackgroundColor=default;" parent="1" vertex="1">
          <mxGeometry x="330" y="125" width="60" height="30" as="geometry" />
        </mxCell>
        <mxCell id="olzzQ1QHrfak2-U6HVVo-142" value="" style="endArrow=none;dashed=1;html=1;dashPattern=1 3;strokeWidth=2;rounded=0;entryX=1;entryY=0.5;entryDx=0;entryDy=0;exitX=0;exitY=0.5;exitDx=0;exitDy=0;" parent="1" source="olzzQ1QHrfak2-U6HVVo-9" target="olzzQ1QHrfak2-U6HVVo-9" edge="1">
          <mxGeometry width="50" height="50" relative="1" as="geometry">
            <mxPoint x="50" y="530" as="sourcePoint" />
            <mxPoint x="100" y="480" as="targetPoint" />
          </mxGeometry>
        </mxCell>
        <mxCell id="ZyVZIFEdDxztzDdGVrU_-1" value="&lt;p style=&quot;margin: 4px 0px 0px; text-align: center;&quot;&gt;&lt;b&gt;&lt;i&gt;ImpalaTable&lt;/i&gt;&lt;/b&gt;&lt;/p&gt;&lt;hr&gt;&lt;p style=&quot;margin:0px;margin-left:8px;&quot;&gt;format, location, partitions&lt;br&gt;&lt;/p&gt;" style="verticalAlign=top;align=left;overflow=fill;fontSize=12;fontFamily=Helvetica;html=1;whiteSpace=wrap;" vertex="1" parent="1">
          <mxGeometry x="-500" y="730" width="150" height="70" as="geometry" />
        </mxCell>
        <mxCell id="ZyVZIFEdDxztzDdGVrU_-4" value="&lt;p style=&quot;margin: 4px 0px 0px; text-align: center;&quot;&gt;&lt;b&gt;ImpalaView&lt;/b&gt;&lt;/p&gt;&lt;hr&gt;&lt;p style=&quot;margin:0px;margin-left:8px;&quot;&gt;viewName&lt;br&gt;&lt;/p&gt;" style="verticalAlign=top;align=left;overflow=fill;fontSize=12;fontFamily=Helvetica;html=1;whiteSpace=wrap;" vertex="1" parent="1">
          <mxGeometry x="-280" y="720" width="150" height="90" as="geometry" />
        </mxCell>
        <mxCell id="ZyVZIFEdDxztzDdGVrU_-5" value="" style="edgeStyle=segmentEdgeStyle;endArrow=block;html=1;rounded=1;endSize=12;startSize=8;endFill=0;" edge="1" parent="1" source="olzzQ1QHrfak2-U6HVVo-133" target="ZyVZIFEdDxztzDdGVrU_-1">
          <mxGeometry width="50" height="50" relative="1" as="geometry">
            <mxPoint x="-385" y="819" as="sourcePoint" />
            <mxPoint x="-385" y="679" as="targetPoint" />
            <Array as="points">
              <mxPoint x="-575" y="860" />
              <mxPoint x="-430" y="860" />
            </Array>
          </mxGeometry>
        </mxCell>
        <mxCell id="ZyVZIFEdDxztzDdGVrU_-6" value="" style="edgeStyle=segmentEdgeStyle;endArrow=block;html=1;rounded=1;endSize=12;startSize=8;endFill=0;" edge="1" parent="1" source="olzzQ1QHrfak2-U6HVVo-132" target="ZyVZIFEdDxztzDdGVrU_-1">
          <mxGeometry width="50" height="50" relative="1" as="geometry">
            <mxPoint x="-375" y="829" as="sourcePoint" />
            <mxPoint x="-375" y="689" as="targetPoint" />
            <Array as="points">
              <mxPoint x="-385" y="860" />
              <mxPoint x="-430" y="860" />
            </Array>
          </mxGeometry>
        </mxCell>
        <mxCell id="ZyVZIFEdDxztzDdGVrU_-7" value="&lt;p style=&quot;margin: 4px 0px 0px; text-align: center;&quot;&gt;&lt;b&gt;PrivateImpalaViewCdw&lt;/b&gt;&lt;/p&gt;&lt;hr&gt;&lt;p style=&quot;margin:0px;margin-left:8px;&quot;&gt;&lt;br&gt;&lt;/p&gt;" style="verticalAlign=top;align=left;overflow=fill;fontSize=12;fontFamily=Helvetica;html=1;whiteSpace=wrap;" vertex="1" parent="1">
          <mxGeometry x="-280" y="890" width="150" height="70" as="geometry" />
        </mxCell>
        <mxCell id="ZyVZIFEdDxztzDdGVrU_-9" value="" style="edgeStyle=segmentEdgeStyle;endArrow=block;html=1;rounded=1;endSize=12;startSize=8;endFill=0;entryX=0.5;entryY=1;entryDx=0;entryDy=0;" edge="1" parent="1" source="ZyVZIFEdDxztzDdGVrU_-7" target="ZyVZIFEdDxztzDdGVrU_-4">
          <mxGeometry width="50" height="50" relative="1" as="geometry">
            <mxPoint x="-440" y="820" as="sourcePoint" />
            <mxPoint x="-290" y="680" as="targetPoint" />
            <Array as="points">
              <mxPoint x="-205" y="850" />
              <mxPoint x="-205" y="850" />
            </Array>
          </mxGeometry>
        </mxCell>
        <mxCell id="ZyVZIFEdDxztzDdGVrU_-11" value="" style="edgeStyle=segmentEdgeStyle;endArrow=block;html=1;rounded=1;endSize=12;startSize=8;endFill=0;" edge="1" parent="1" source="ZyVZIFEdDxztzDdGVrU_-4" target="olzzQ1QHrfak2-U6HVVo-131">
          <mxGeometry width="50" height="50" relative="1" as="geometry">
            <mxPoint x="-565" y="970" as="sourcePoint" />
            <mxPoint x="-375" y="810" as="targetPoint" />
            <Array as="points">
              <mxPoint x="-205" y="700" />
              <mxPoint x="-430" y="700" />
            </Array>
          </mxGeometry>
        </mxCell>
      </root>
    </mxGraphModel>
  </diagram>
</mxfile>
